<svg width="24" height="23" viewBox="0 0 24 23" fill="none" xmlns="http://www.w3.org/2000/svg">
<rect x="0.75" y="0.5" width="22.5" height="22.5" fill="#4176B2"/>
<path d="M12.6 11.225C11.9038 11.225 11.2361 10.9484 10.7438 10.4562C10.2516 9.96387 9.975 9.29619 9.975 8.6C9.975 7.90381 10.2516 7.23613 10.7438 6.74384C11.2361 6.25156 11.9038 5.975 12.6 5.975C13.2962 5.975 13.9639 6.25156 14.4562 6.74384C14.9484 7.23613 15.225 7.90381 15.225 8.6C15.225 8.94472 15.1571 9.28606 15.0252 9.60454C14.8933 9.92302 14.6999 10.2124 14.4562 10.4562C14.2124 10.6999 13.923 10.8933 13.6045 11.0252C13.2861 11.1571 12.9447 11.225 12.6 11.225ZM12.6 1.25C10.6507 1.25 8.78116 2.02437 7.40277 3.40277C6.02437 4.78116 5.25 6.65066 5.25 8.6C5.25 14.1125 12.6 22.25 12.6 22.25C12.6 22.25 19.95 14.1125 19.95 8.6C19.95 6.65066 19.1756 4.78116 17.7972 3.40277C16.4188 2.02437 14.5493 1.25 12.6 1.25Z" fill="#FEFEFE"/>
</svg>
