<svg width="24" height="23" viewBox="0 0 24 23" fill="none" xmlns="http://www.w3.org/2000/svg">
<rect x="0.75" y="0.5" width="22.5" height="22.5" fill="#4176B2"/>
<path d="M12.2793 0.5C10.7653 0.5 9.26603 0.798214 7.86723 1.37762C6.46843 1.95702 5.19745 2.80626 4.12685 3.87685C1.96469 6.03902 0.75 8.97154 0.75 12.0293C0.75 17.1253 4.05891 21.4487 8.63604 22.9821C9.21251 23.0744 9.39698 22.717 9.39698 22.4057V20.4572C6.20336 21.149 5.52313 18.9123 5.52313 18.9123C4.99278 17.5749 4.24338 17.2175 4.24338 17.2175C3.19421 16.5027 4.32408 16.5257 4.32408 16.5257C5.47701 16.6064 6.08807 17.7133 6.08807 17.7133C7.09112 19.4657 8.78592 18.9469 9.44309 18.6702C9.54686 17.9208 9.84662 17.4135 10.1694 17.1253C7.60994 16.837 4.92361 15.8455 4.92361 11.4528C4.92361 10.1731 5.36172 9.14698 6.11113 8.3284C5.99583 8.04016 5.59231 6.84112 6.22642 5.28466C6.22642 5.28466 7.19488 4.97337 9.39698 6.46065C10.3078 6.20701 11.2993 6.08018 12.2793 6.08018C13.2593 6.08018 14.2508 6.20701 15.1616 6.46065C17.3637 4.97337 18.3322 5.28466 18.3322 5.28466C18.9663 6.84112 18.5628 8.04016 18.4475 8.3284C19.1969 9.14698 19.635 10.1731 19.635 11.4528C19.635 15.857 16.9371 16.8255 14.3661 17.1137C14.7812 17.4711 15.1616 18.1744 15.1616 19.2466V22.4057C15.1616 22.717 15.3461 23.0859 15.9341 22.9821C20.5112 21.4372 23.8086 17.1253 23.8086 12.0293C23.8086 10.5153 23.5104 9.01603 22.931 7.61723C22.3516 6.21843 21.5023 4.94745 20.4318 3.87685C19.3612 2.80626 18.0902 1.95702 16.6914 1.37762C15.2926 0.798214 13.7934 0.5 12.2793 0.5Z" fill="#FEFEFE"/>
</svg>
