<svg width="24" height="23" viewBox="0 0 24 23" fill="none" xmlns="http://www.w3.org/2000/svg">
<rect x="0.75" y="0.5" width="22.5" height="22.5" fill="#4176B2"/>
<path d="M20.9167 1.25C21.5355 1.25 22.129 1.49583 22.5666 1.93342C23.0042 2.371 23.25 2.96449 23.25 3.58333V19.9167C23.25 20.5355 23.0042 21.129 22.5666 21.5666C22.129 22.0042 21.5355 22.25 20.9167 22.25H4.58333C3.96449 22.25 3.371 22.0042 2.93342 21.5666C2.49583 21.129 2.25 20.5355 2.25 19.9167V3.58333C2.25 2.96449 2.49583 2.371 2.93342 1.93342C3.371 1.49583 3.96449 1.25 4.58333 1.25H20.9167ZM20.3333 19.3333V13.15C20.3333 12.1413 19.9326 11.1739 19.2194 10.4606C18.5061 9.74737 17.5387 9.34667 16.53 9.34667C15.5383 9.34667 14.3833 9.95333 13.8233 10.8633V9.56833H10.5683V19.3333H13.8233V13.5817C13.8233 12.6833 14.5467 11.9483 15.445 11.9483C15.8782 11.9483 16.2936 12.1204 16.5999 12.4267C16.9062 12.733 17.0783 13.1485 17.0783 13.5817V19.3333H20.3333ZM6.77667 7.73667C7.29649 7.73667 7.79502 7.53017 8.1626 7.1626C8.53017 6.79502 8.73667 6.29649 8.73667 5.77667C8.73667 4.69167 7.86167 3.805 6.77667 3.805C6.25375 3.805 5.75225 4.01273 5.38249 4.38249C5.01273 4.75225 4.805 5.25375 4.805 5.77667C4.805 6.86167 5.69167 7.73667 6.77667 7.73667ZM8.39833 19.3333V9.56833H5.16667V19.3333H8.39833Z" fill="#FEFEFE"/>
</svg>
