<svg width="24" height="23" viewBox="0 0 24 23" fill="none" xmlns="http://www.w3.org/2000/svg">
<rect x="0.75" y="0.5" width="22.5" height="22.5" fill="#4176B2"/>
<path d="M7.37 10.54C8.81 13.37 11.13 15.68 13.96 17.13L16.16 14.93C16.43 14.66 16.83 14.57 17.18 14.69C18.3 15.06 19.51 15.26 20.75 15.26C21.3 15.26 21.75 15.71 21.75 16.26V19.75C21.75 20.3 21.3 20.75 20.75 20.75C11.36 20.75 3.75 13.14 3.75 3.75C3.75 3.2 4.2 2.75 4.75 2.75H8.25C8.8 2.75 9.25 3.2 9.25 3.75C9.25 5 9.45 6.2 9.82 7.32C9.93 7.67 9.85 8.06 9.57 8.34L7.37 10.54Z" fill="#FEFEFE"/>
</svg>
